<svg xmlns="http://www.w3.org/2000/svg" xmlns:xlink="http://www.w3.org/1999/xlink" width="2000" zoomAndPan="magnify" viewBox="0 0 1500 1499.999933" height="2000" preserveAspectRatio="xMidYMid meet" version="1.0"><defs><clipPath id="5dcec83bc8"><path d="M 152 156 L 1349 156 L 1349 1344 L 152 1344 Z M 152 156 " clip-rule="nonzero"/></clipPath></defs><g clip-path="url(#5dcec83bc8)"><path fill="#07122a" d="M 1325.261719 985.960938 C 1324.273438 901.863281 1316.082031 817.246094 1300.90625 734.457031 C 1286.503906 655.886719 1270.539062 586.21875 1220.84375 529.296875 C 1189.660156 493.601562 1137.832031 466.421875 1088.714844 459.949219 L 1020.359375 189.074219 C 1014.394531 165.21875 990.191406 150.929688 966.425781 156.863281 L 185.359375 353.980469 C 162.144531 360.175781 148.054688 384.296875 153.953125 407.765625 L 269.722656 866.851562 C 275.714844 890.835938 300.089844 905.144531 323.761719 899.0625 L 925.03125 747.449219 C 926.640625 751.089844 928.367188 753.816406 930.269531 757.578125 C 924.398438 763.519531 918.222656 770.304688 917.988281 780.027344 C 917.734375 788.441406 920.589844 798.304688 925.621094 806.382812 C 944.921875 837.523438 968.964844 865.007812 997.03125 888.210938 C 1020.785156 956.46875 1036.746094 981.308594 1058.402344 1014.449219 C 1076.425781 1042.023438 1095.066406 1070.527344 1102.082031 1102.941406 C 1102.277344 1103.847656 1102.835938 1104.539062 1103.449219 1105.148438 C 1102.519531 1108.519531 1106.289062 1114.070312 1109.089844 1150.890625 C 1113.796875 1212.785156 1119.132812 1273.636719 1124.5 1338.980469 C 1124.691406 1341.40625 1126.722656 1343.242188 1129.113281 1343.242188 C 1131.847656 1343.242188 1133.957031 1340.902344 1133.734375 1338.230469 C 1117.183594 1135.707031 1115.667969 1107.546875 1111.050781 1103.121094 C 1111.230469 1102.4375 1111.304688 1101.722656 1111.148438 1100.984375 C 1099.523438 1047.296875 1059.304688 1006.410156 1036.246094 959.265625 C 985.15625 855.078125 968.351562 731.492188 926.097656 639.929688 C 905.707031 595.726562 857.753906 520.238281 866.785156 476.851562 C 874.828125 500.257812 889.125 528.34375 913.78125 528.34375 C 924.558594 528.34375 936.847656 522.441406 940.292969 511.660156 C 944.839844 497.339844 938.433594 478.773438 936.351562 473.402344 C 934.882812 469.652344 933.273438 466.078125 931.636719 462.542969 C 956.984375 482.199219 970.5625 514.769531 1016.214844 591.023438 L 1018.046875 594.089844 C 1061.519531 667.027344 1085.824219 687.570312 1145.335938 728.78125 C 1158.5 737.90625 1172.121094 747.347656 1184.710938 757.308594 C 1186.703125 758.890625 1189.632812 758.570312 1191.222656 756.546875 C 1192.8125 754.542969 1192.472656 751.621094 1190.46875 750.039062 C 1167.457031 731.824219 1142.9375 716.761719 1116.703125 696.730469 C 1132.765625 686.757812 1141.035156 667.210938 1136.246094 648.292969 L 1091.203125 469.8125 C 1137.101562 476.839844 1184.855469 502.191406 1213.859375 535.40625 C 1262.011719 590.539062 1277.636719 658.929688 1291.792969 736.121094 C 1306.867188 818.40625 1315.007812 902.503906 1315.992188 986.078125 C 1316.777344 1053.058594 1330.261719 1113.171875 1339.394531 1179.273438 C 1339.714844 1181.59375 1341.707031 1183.269531 1343.980469 1183.269531 C 1346.769531 1183.269531 1348.96875 1180.8125 1348.582031 1177.996094 C 1346.078125 1159.886719 1343.226562 1142.101562 1340.390625 1124.441406 C 1332.898438 1077.722656 1325.824219 1033.609375 1325.261719 985.960938 Z M 1061.257812 642.042969 C 1057.023438 635.984375 1059.980469 642.125 1039.492188 610.804688 C 1057.484375 607.371094 1070.722656 626.757812 1061.257812 642.042969 Z M 786.554688 456.273438 C 787.640625 459.378906 786.050781 463.375 782.097656 464.695312 L 766.25 469.523438 C 762.660156 470.636719 758.945312 468.65625 757.832031 465.191406 C 756.71875 461.597656 758.699219 457.882812 762.289062 456.769531 L 778.261719 451.816406 C 781.726562 450.703125 785.441406 452.683594 786.554688 456.273438 Z M 786.679688 556.441406 L 801.910156 563.25 C 809.460938 566.886719 805.273438 578.863281 796.335938 575.507812 L 781.230469 568.574219 C 777.886719 567.089844 776.277344 563.125 777.886719 559.660156 C 779.375 556.316406 783.335938 554.832031 786.679688 556.441406 Z M 565.917969 659.207031 C 547.675781 663.960938 530.140625 652.847656 525.554688 635.804688 L 497.824219 531.554688 C 493.859375 516.695312 500.792969 501.34375 513.792969 494.285156 L 505.746094 463.085938 C 493.734375 417.644531 520.480469 370.84375 565.300781 358.710938 C 613.046875 346.574219 657 375.765625 668.4375 419.253906 L 676.609375 450.578125 C 691.78125 449.414062 706.464844 459.371094 710.535156 474.972656 L 738.269531 579.34375 C 743.015625 596.332031 732.753906 614.882812 714.992188 619.585938 Z M 658.78125 722.101562 C 655.011719 723 651.589844 720.460938 650.730469 717.027344 L 647.265625 700.683594 C 646.398438 697.09375 648.625 693.503906 652.339844 692.757812 C 655.933594 691.894531 659.523438 694.246094 660.265625 697.835938 L 663.855469 714.179688 C 664.722656 717.769531 662.371094 721.359375 658.78125 722.101562 Z M 563.195312 691.644531 L 557.75 707.371094 C 556.632812 710.835938 552.796875 712.691406 549.328125 711.578125 C 545.453125 710.285156 544.007812 705.871094 545.117188 702.910156 L 550.691406 687.1875 C 551.804688 683.71875 555.644531 681.863281 559.109375 683.101562 C 562.699219 684.214844 564.433594 688.054688 563.195312 691.644531 Z M 542.394531 303.613281 C 546.335938 302.675781 549.738281 305.519531 550.441406 308.691406 L 554.035156 324.910156 C 554.898438 328.5 552.671875 332.089844 549.082031 332.957031 C 545.488281 333.824219 541.898438 331.472656 541.035156 327.878906 L 537.320312 311.535156 C 536.578125 307.945312 538.804688 304.355469 542.394531 303.613281 Z M 632.53125 326.394531 L 639.835938 311.414062 C 641.445312 308.070312 645.53125 306.707031 648.875 308.316406 C 652.007812 309.96875 653.621094 313.800781 651.847656 317.355469 L 644.542969 332.335938 C 642.933594 335.554688 638.847656 337.042969 635.503906 335.308594 C 632.160156 333.699219 630.796875 329.738281 632.53125 326.394531 Z M 713.011719 368.367188 L 727.125 359.328125 C 730.21875 357.347656 734.304688 358.214844 736.289062 361.308594 C 738.558594 364.714844 736.933594 369.21875 734.183594 370.597656 L 720.191406 379.632812 C 717.097656 381.617188 713.011719 380.75 711.03125 377.652344 C 708.925781 374.558594 709.914062 370.347656 713.011719 368.367188 Z M 728.734375 640.136719 C 731.085938 637.289062 735.296875 636.917969 738.144531 639.394531 L 751.019531 650.042969 C 757.574219 655.457031 750.023438 665.800781 742.355469 660.320312 L 729.601562 649.546875 C 726.753906 647.320312 726.382812 642.984375 728.734375 640.136719 Z M 442.847656 447.359375 C 441.980469 450.953125 438.269531 453.054688 434.679688 452.066406 L 418.582031 447.730469 C 414.992188 446.742188 412.886719 443.152344 413.753906 439.558594 C 414.90625 435.523438 419.292969 433.820312 422.046875 434.855469 L 438.144531 439.1875 C 441.734375 440.179688 443.839844 443.769531 442.847656 447.359375 Z M 443.589844 540.839844 C 445.324219 544.183594 443.839844 548.144531 440.496094 549.753906 L 425.390625 556.933594 C 422.046875 558.542969 418.085938 557.183594 416.476562 553.839844 C 414.671875 550.027344 417.035156 545.921875 419.695312 544.925781 L 434.679688 537.746094 C 438.019531 536.132812 442.105469 537.496094 443.589844 540.839844 Z M 457.335938 778.191406 C 466.054688 776.300781 474.175781 783.039062 474.175781 791.6875 C 474.175781 798.125 469.839844 803.820312 463.277344 805.179688 L 407.3125 817.6875 C 398.59375 819.578125 390.476562 812.835938 390.476562 804.191406 C 390.476562 797.753906 394.933594 792.058594 401.371094 790.695312 Z M 457.707031 348.929688 C 460.085938 345.820312 464.464844 345.539062 467.117188 347.816406 L 480.242188 357.964844 C 483.210938 360.195312 483.832031 364.40625 481.601562 367.253906 C 479.375 370.226562 475.164062 370.71875 472.191406 368.492188 L 458.945312 358.339844 C 455.972656 356.109375 455.476562 351.898438 457.707031 348.929688 Z M 472.070312 651.15625 C 469.222656 653.511719 465.011719 653.140625 462.660156 650.289062 C 460.457031 647.410156 460.734375 643.253906 463.648438 640.757812 L 476.648438 630.355469 C 479.496094 628.003906 483.707031 628.375 486.058594 631.222656 C 488.410156 634.070312 487.917969 638.28125 485.070312 640.632812 Z M 304.175781 746.125 L 360.140625 733.742188 C 368.957031 731.832031 376.980469 738.554688 376.980469 747.238281 C 376.980469 753.550781 372.648438 759.246094 366.085938 760.734375 L 310.121094 773.113281 C 302.691406 774.847656 295.261719 770.140625 293.652344 762.714844 C 291.902344 754.824219 297.003906 747.777344 304.175781 746.125 Z M 301.082031 824.25 C 301.082031 817.8125 305.417969 812.113281 311.855469 810.628906 L 367.816406 798.246094 C 376.269531 796.445312 384.65625 802.632812 384.65625 811.746094 C 384.65625 818.058594 380.324219 823.753906 373.886719 825.238281 L 317.921875 837.746094 C 309.613281 839.542969 301.082031 833.398438 301.082031 824.25 Z M 971.65625 333.082031 C 709.265625 398.152344 838.757812 366.039062 801.414062 375.300781 C 796.585938 376.414062 791.753906 373.816406 790.640625 369.480469 L 784.882812 347.089844 C 788.15625 348.410156 777.019531 349.917969 907.589844 315.484375 C 910.0625 314.820312 911.53125 312.285156 910.871094 309.808594 C 910.214844 307.347656 907.703125 305.886719 905.199219 306.527344 C 778.230469 340.828125 785.027344 337.757812 783.070312 340.050781 L 774.21875 305.636719 L 861.878906 282.054688 C 864.347656 281.390625 865.8125 278.84375 865.148438 276.367188 C 864.480469 273.90625 861.96875 272.445312 859.460938 273.097656 L 771.890625 296.65625 L 766.25 275.011719 C 765.136719 270.679688 767.984375 266.222656 772.8125 264.984375 L 943.054688 222.761719 C 947.882812 221.523438 952.710938 224.125 953.828125 228.457031 L 978.21875 322.925781 C 979.332031 327.261719 976.484375 331.84375 971.65625 333.082031 Z M 952.394531 740.550781 C 957.582031 757.8125 962.566406 775.246094 970.886719 804.183594 C 954.433594 784.09375 945.621094 768.425781 934.195312 745.136719 Z M 933.496094 801.492188 C 929.453125 794.984375 927.0625 786.875 927.261719 780.28125 C 927.382812 775.027344 930.582031 770.707031 934.660156 766.363281 C 946.148438 788.679688 959.359375 805.457031 977.269531 826.007812 C 981.445312 840.328125 986.5 856.871094 991.113281 870.878906 C 968.84375 850.589844 949.507812 827.316406 933.496094 801.492188 Z M 933.226562 682.199219 L 900.589844 690.902344 C 889.445312 693.875 877.929688 687.1875 874.957031 676.042969 C 871.941406 665.5 878.25 653.457031 889.816406 650.414062 L 917.320312 643.085938 C 922.835938 655.019531 925.941406 662.164062 933.226562 682.199219 Z M 931.460938 508.847656 C 929.308594 515.59375 919.578125 519.785156 912.238281 519.011719 C 886.753906 516.898438 876.207031 474.507812 867.199219 450.054688 C 862.035156 435.167969 851.863281 403.695312 867.5625 403.695312 C 890.265625 403.695312 918.199219 452.488281 927.714844 476.769531 C 931.414062 486.320312 934.339844 499.769531 931.460938 508.847656 Z M 1108.6875 690.609375 C 1105.632812 688.121094 1107.078125 689.398438 1102.46875 685.507812 C 1107.59375 676.800781 1109.664062 666.222656 1106.984375 655.613281 L 991.21875 196.515625 C 987.410156 181.617188 975.667969 170.953125 961.660156 167.648438 L 968.695312 165.859375 C 987.292969 161.148438 1006.621094 172.328125 1011.363281 191.332031 L 1127.253906 650.5625 C 1131.34375 666.714844 1123.421875 683.460938 1108.6875 690.609375 Z M 1108.6875 690.609375 " fill-opacity="1" fill-rule="nonzero"/></g><path fill="#07122a" d="M 552.050781 483.019531 L 640.578125 459.496094 L 632.78125 429.777344 C 626.074219 403.941406 602.089844 386.148438 575.949219 393.5 C 551.679688 400.808594 537.8125 428.789062 544.996094 456.152344 Z M 552.050781 483.019531 " fill-opacity="1" fill-rule="nonzero"/><path fill="#07122a" d="M 729.351562 581.699219 L 701.621094 477.324219 C 698.183594 464.375 684.277344 456.976562 672.648438 460.609375 L 523.574219 500.226562 C 510.945312 503.570312 503.394531 516.570312 506.738281 529.203125 L 534.59375 633.453125 C 537.9375 646.082031 550.816406 653.632812 563.441406 650.289062 L 712.515625 610.671875 C 725.664062 606.988281 732.644531 594.097656 729.351562 581.699219 Z M 640.085938 596.433594 L 622.625 600.640625 L 612.96875 564.488281 C 597.246094 564.488281 584.492188 551.859375 584.492188 536.132812 C 584.492188 520.535156 597.246094 507.90625 612.96875 507.90625 C 640.433594 507.90625 651.769531 542.628906 630.054688 558.917969 Z M 640.085938 596.433594 " fill-opacity="1" fill-rule="nonzero"/></svg>